<?xml version="1.0" encoding="UTF-8"?>
<svg id="Camada_2" data-name="Camada 2" xmlns="http://www.w3.org/2000/svg" viewBox="0 0 160 160">
  <defs>
    <style>
      .cls-1 {
        fill: #ebd3b7;
      }

      .cls-2 {
        fill: #663d02;
      }
    </style>
  </defs>
  <g id="Camada_1-2" data-name="Camada 1">
    <rect width="160" height="160" rx="41.85" ry="41.85"/>
    <g id="Objeto_generativo" data-name="Objeto generativo">
      <g>
        <path class="cls-1" d="M98.21,122.34c-5.59,5.51-11.93,9.23-20.16,9.06l-1.91-.04c-4.34-.09-8.64-.97-12.6-2.73-1.03-.46-2.04-.98-3.02-1.61-6.25-4.05-9.51-10.44-9.77-17.71-.02-.61.08-1.3.15-1.77.32-2.23,1.32-6.04,2.64-8.82.57-1.19.13-2.62-.99-3.33-2.49-1.57-4.64-3.09-6.51-5.61-6.38-8.55-4.88-20.67,4.1-26.77,7.99-5.43,18.14-3.96,24.69,2.64,1.03,1.04,2.71,1.06,3.73.01,3.96-4,9.1-6.14,14.61-5.98,6.23.19,12.03,3.22,15.59,8.87,5.64,9.59,1.81,21.63-7.68,26.77-1.26.68-1.74,2.23-1.11,3.5,0,0,0,.01.01.02,3.54,7.13,4,14.73-.19,21.43-.36.58-1.23,1.72-1.58,2.06Z"/>
        <g>
          <path class="cls-2" d="M106.68,109.21c5.68-4.57,10.07-9.67,13.1-16.54,5.5.72,10.61-.59,14.38-4.42,3.5-3.56,5.46-8.53,4.83-13.77-1.18-9.79-10.18-16.43-19.7-14.17-4.71-9.44-12.43-16.66-22.08-20.4-6.77-2.62-12.74-5.79-18.73-10.16-.89-.42-2.75-1.93-3.23-.67-.77,2,.72,3.92,1.14,5.96-1.63-.55-14.2-5.36-11.68-.79l2.58,3.99c-11.71,3.18-21.37,10.9-26.87,21.92-10.1-1.9-19.31,5.78-19.5,15.71-.2,10.44,8.58,18.27,18.88,16.78,2.65,6.11,6.46,10.93,11.1,14.89.41-2.84,1.93-8.25,3.79-10.82-3.42-2.13-6.26-3.73-8.65-6.94-6.38-8.55-4.88-20.67,4.1-26.77,8.8-5.98,20.21-3.6,26.56,4.8,4.13-5.37,10.05-8.31,16.47-8.12,6.23.19,12.03,3.22,15.59,8.87,5.97,10.15,1.33,23.04-9.39,27.6-.53.63.29,2.03.62,2.7,3.54,7.13,3.69,15.14-.5,21.84"/>
          <path class="cls-2" d="M122.36,86.07c1.39-6.45,1.39-12.52-.56-19.05,5.46-.61,9.69,4.05,9.82,9.17.13,5.02-3.77,9.63-9.26,9.88Z"/>
          <path class="cls-2" d="M37.84,66.75c-1.82,6.63-1.91,12.87-.35,19.36-5.47-.4-8.95-4.77-9.05-9.59-.11-5.26,3.67-9.54,9.4-9.77Z"/>
        </g>
      </g>
      <g>
        <path d="M74.71,102.9c-.06,0-.11,0-.17,0-1.92-.12-3.46-1.06-4.81-1.89-.82-.5-1.6-.98-2.26-1.14-1.16-.28-1.88-1.45-1.6-2.61s1.45-1.88,2.61-1.6c1.33.32,2.49,1.03,3.51,1.65.99.61,1.93,1.18,2.76,1.25.62-.02,1.47-.59,2.28-1.13.77-.51,1.56-1.04,2.47-1.36,1.13-.4,2.37.19,2.77,1.32.4,1.13-.19,2.37-1.32,2.77-.4.14-.94.5-1.51.88-1.24.83-2.79,1.86-4.73,1.86Z"/>
        <path d="M54.88,79.72c3.19,2.84,7.35,3.33,10.58.37.74-.55,1.54-1.7,2.41-1.17,2.37,1.71-.48,3.53-1.93,4.71-4.1,2.86-9.68,1.65-13.15-1.56-1.52-1.42.5-3.7,2.09-2.36h0Z"/>
        <path d="M88.77,79.72c3.19,2.84,7.35,3.33,10.58.37.74-.55,1.54-1.7,2.41-1.17,2.37,1.71-.48,3.53-1.93,4.71-4.1,2.86-9.68,1.65-13.15-1.56-1.52-1.42.5-3.7,2.09-2.36h0Z"/>
      </g>
    </g>
    <path class="cls-1" d="M35.52,89.28c-3.79,0-6.86-4.86-6.86-10.86s3.07-10.86,6.86-10.86"/>
    <path class="cls-1" d="M127.39,66.55c3.79,0,6.86,4.86,6.86,10.86s-3.07,10.86-6.86,10.86"/>
  </g>
</svg>